<svg width="25px" height="25px" viewBox="0 0 24 24" fill="none" xmlns="http://www.w3.org/2000/svg" transform="matrix(-1, 0, 0, 1, 0, 0)rotate(0)"><g id="SVGRepo_bgCarrier" stroke-width="0"></g><g id="SVGRepo_tracerCarrier" stroke-linecap="round" stroke-linejoin="round"></g><g id="SVGRepo_iconCarrier"> <path d="M2.75 20C2.75 20.5523 3.19772 21 3.75 21C4.30228 21 4.75 20.5523 4.75 20L4.75 4C4.75 3.44772 4.30229 3 3.75 3C3.19772 3 2.75 3.44772 2.75 4V20Z" fill="#212121"></path> <path d="M20.75 19.0526C20.75 20.4774 19.1383 21.305 17.9803 20.4748L7.51062 12.9682C6.50574 12.2477 6.54467 10.7407 7.5854 10.073L18.0551 3.35665C19.2198 2.60946 20.75 3.44583 20.75 4.82961L20.75 19.0526Z" fill="#000000"></path> </g></svg>